<?xml version="1.0" standalone="no"?>
<!DOCTYPE svg PUBLIC "-//W3C//DTD SVG 20010904//EN"
 "http://www.w3.org/TR/2001/REC-SVG-20010904/DTD/svg10.dtd">
<svg version="1.0" xmlns="http://www.w3.org/2000/svg"
 width="96.000000pt" height="99.000000pt" viewBox="0 0 96.000000 99.000000"
 preserveAspectRatio="xMidYMid meet">

<g transform="translate(0.000000,99.000000) scale(0.100000,-0.100000)"
fill="#000000" stroke="none">
<path d="M185 866 c-41 -18 -84 -63 -106 -111 -16 -35 -19 -68 -19 -275 0
-262 5 -284 70 -347 55 -53 81 -58 335 -58 254 0 280 5 335 58 65 63 70 85 70
347 0 207 -3 240 -19 275 -22 49 -65 93 -108 111 -45 20 -514 19 -558 0z m561
-26 c24 -12 54 -39 70 -62 l29 -41 3 -244 c3 -235 2 -246 -19 -290 -15 -30
-37 -55 -67 -74 l-46 -29 -248 0 c-284 0 -304 5 -355 82 l-28 41 -3 245 c-3
234 -2 245 19 289 15 30 37 55 67 74 l46 29 245 0 c226 0 248 -2 287 -20z"/>
<path d="M430 760 c-11 -11 -20 -29 -20 -40 0 -11 9 -28 20 -37 15 -13 20 -30
20 -69 0 -45 -4 -57 -30 -82 -17 -18 -30 -41 -30 -55 0 -20 -12 -32 -51 -57
-28 -17 -61 -30 -73 -29 -38 3 -45 -1 -62 -26 -19 -29 -12 -58 20 -73 34 -15
70 5 74 44 2 24 13 36 55 61 38 23 56 29 69 22 23 -12 72 -11 85 2 8 8 26 2
67 -22 45 -27 56 -39 56 -60 0 -27 11 -41 43 -52 19 -7 67 31 67 53 0 24 -47
58 -72 53 -38 -7 -128 51 -128 84 0 14 -13 37 -30 55 -26 25 -30 37 -30 82 0
39 5 56 20 69 11 9 20 26 20 37 0 23 -33 60 -55 60 -8 0 -24 -9 -35 -20z"/>
</g>
</svg>
